<?xml version="1.0" encoding="UTF-8"?><svg id="Layer_2" xmlns="http://www.w3.org/2000/svg" viewBox="0 0 1000 301.08"><g id="Layer_1-2"><g><path d="M251.65,188.79L286.19,0h71.96l-63.9,301.08h-75.27l-40.32-171.63-39.5,171.63H64.1L0,0H72.17l34.53,188.79L148.06,0h61.62l41.98,188.79Z"/><path d="M386.48,301.08V0h96.98c26.6,0,50.52,6.03,71.75,18.09,21.23,12.06,37.81,29.09,49.73,51.08,11.92,21.99,17.95,46.63,18.09,73.92v13.85c0,27.57-5.82,52.28-17.47,74.13-11.65,21.85-28.05,38.95-49.21,51.28-21.16,12.34-44.77,18.58-70.82,18.71h-99.05ZM459.06,56.04V245.24h25.23c20.81,0,36.81-7.41,47.97-22.23,11.17-14.82,16.75-36.84,16.75-66.07v-13.03c0-29.09-5.58-51-16.75-65.76-11.17-14.75-27.43-22.13-48.8-22.13h-24.4Z"/><path d="M893.51,188.79L928.04,0h71.96l-63.9,301.08h-75.27l-40.32-171.63-39.5,171.63h-75.06L641.85,0h72.17l34.53,188.79L789.91,0h61.62l41.98,188.79Z"/></g></g></svg>